<svg xmlns="http://www.w3.org/2000/svg" fill="none" viewBox="0 0 24 24" id="Tableau--Streamline-Svg-Logos" height="24" width="24">
  <desc>
    Tableau Streamline Icon: https://streamlinehq.com
  </desc>
  <path fill="#7099a6" d="M2.712 9.739125v0.23125H2.29834v0.150425H2.712v0.46065h0.1617v-0.46065h0.423975v-0.150425h-0.423975v-0.461575h-0.1617v0.230325Z" stroke-width="0.25"></path>
  <path fill="#eb912c" d="M1.3603675 10.32585v0.335625H0.7342525v0.210575h0.626115v0.6816h0.2322075v-0.6816h0.6355175v-0.210575H1.592575v-0.67125h-0.2322075v0.335625Z" stroke-width="0.25"></path>
  <path fill="#59879b" d="M3.98415 10.32585v0.335625h-0.626125v0.220925h0.626125v0.67125h0.2416v-0.67125h0.626125v-0.220925H4.22575v-0.67125h-0.2416v0.335625Z" stroke-width="0.25"></path>
  <path fill="#e8762c" d="M2.65195 11.468825v0.37605H1.9553225v0.28015h0.6966275v0.752075h0.282025v-0.752075h0.696625v-0.28015h-0.696625v-0.7521h-0.282025v0.37605Z" stroke-width="0.25"></path>
  <path fill="#5b6591" d="M4.700475 11.6591v0.235975H4.2765v0.190825h0.423975v0.471h0.211525v-0.471h0.424v-0.190825h-0.424v-0.471h-0.211525v0.235025Z" stroke-width="0.25"></path>
  <path fill="#7099a6" d="M0.66365 11.679475v0.225625H0.25v0.159825h0.41365v0.45125h0.1617v-0.45125l0.42399 -0.015025v-0.1448H0.82535v-0.45125h-0.1617v0.225625Z" stroke-width="0.25"></path>
  <path fill="#c72035" d="M1.3603675 12.741875V13.0775H0.7342525v0.220925h0.626115v0.671225h0.24161v-0.671225h0.626115V13.0775H1.6019775v-0.67125h-0.24161v0.335625Z" stroke-width="0.25"></path>
  <path fill="#1f447e" d="M3.98415 12.741875V13.0775h-0.626125v0.210575h0.626125v0.681575h0.2416v-0.681575h0.626125V13.0775H4.22575v-0.67125h-0.2416v0.335625Z" stroke-width="0.25"></path>
  <path fill="#5b6591" d="M2.692425 13.594375v0.235025H2.2684325v0.19085h0.4239925v0.470975h0.211525V14.02025h0.424v-0.19085h-0.424v-0.471h-0.211525v0.235975Z" stroke-width="0.25"></path>
  <path fill="#1f447e" d="M15.729875 10.51075v2.857925h-0.322475V10.51075h0.322475Zm-8.0126 0.401425v0.9119H8.585v0.30085h-0.867725v0.9824h-0.32245v-0.9824h-0.867725v-0.30085h0.867725v-0.9119h0.32245Zm10.092125 0.6261c0.058275 0.002825 0.13255 0.012225 0.1664 0.0207 0.0329 0.00845 0.087425 0.0282 0.120325 0.044175 0.03385 0.01505 0.088375 0.04795 0.121275 0.073325 0.03385 0.0254 0.08085 0.0724 0.1053 0.10435 0.02445 0.031975 0.059225 0.09025 0.078025 0.1288 0.0188 0.03855 0.04325 0.10625 0.054525 0.150425 0.011275 0.044175 0.02445 0.1335 0.034775 0.315875h-1.114975l0.0066 0.0376c0.0028 0.0207 0.015025 0.064875 0.024425 0.097775 0.01035 0.0329 0.036675 0.0846 0.05735 0.11375 0.0207 0.02915 0.051725 0.063925 0.0677 0.07615 0.016925 0.012225 0.05075 0.0329 0.07615 0.046075 0.02445 0.012225 0.067675 0.0282 0.095875 0.035725 0.028225 0.007525 0.103425 0.0141 0.1711 0.0141 0.06675 0 0.16265 -0.006575 0.212475 -0.01505 0.049825 -0.00845 0.120325 -0.025375 0.15605 -0.03665 0.035725 -0.0113 0.08275 -0.02915 0.103425 -0.0395 0.020675 -0.010325 0.0423 -0.019725 0.04795 -0.019725 0.0063 0 0.01 0.05255 0.010325 0.27075l0 0.030075 -0.05545 0.025375c-0.031025 0.0141 -0.09495 0.036675 -0.14385 0.050775 -0.048875 0.01315 -0.1382 0.030075 -0.1993 0.036675 -0.083675 0.00845 -0.140075 0.00845 -0.2275 0 -0.063925 -0.0066 -0.157 -0.023525 -0.206825 -0.037625 -0.049825 -0.0141 -0.122225 -0.0423 -0.159825 -0.062975 -0.03855 -0.020675 -0.1034 -0.068625 -0.144775 -0.107175 -0.0423 -0.03855 -0.09495 -0.101525 -0.1194 -0.140075s-0.054525 -0.10435 -0.068625 -0.145725c-0.0141 -0.04135 -0.031025 -0.11375 -0.0376 -0.159825 -0.007525 -0.0517 -0.0094 -0.124075 -0.00565 -0.1805 0.002825 -0.05265 0.01505 -0.1316 0.026325 -0.1758 0.011275 -0.044175 0.03855 -0.116575 0.060175 -0.16075 0.021625 -0.0442 0.06205 -0.107175 0.088375 -0.140075 0.02725 -0.0329 0.08085 -0.083675 0.119375 -0.112825 0.03855 -0.029125 0.103425 -0.0658 0.14385 -0.082725 0.039475 -0.016925 0.1081 -0.03665 0.15135 -0.045125 0.051725 -0.0094 0.11375 -0.01315 0.184275 -0.01035Zm3.349625 -0.015025v0.5039c0 0.277325 -0.002825 0.609175 -0.01505 0.971125l-0.08085 0.02445c-0.044175 0.01315 -0.1335 0.03385 -0.1993 0.044175 -0.083675 0.01505 -0.163575 0.0207 -0.2717 0.0207 -0.08555 0 -0.18425 -0.0047 -0.219975 -0.01035 -0.035725 -0.006575 -0.10625 -0.02445 -0.156075 -0.040425 -0.053575 -0.016925 -0.12315 -0.049825 -0.1664 -0.078025 -0.0423 -0.027275 -0.100575 -0.075225 -0.130675 -0.108125 -0.029125 -0.03195 -0.0705 -0.088375 -0.09025 -0.124075 -0.019725 -0.035725 -0.047 -0.10155 -0.06015 -0.1448 -0.01975 -0.062975 -0.0254 -0.111875 -0.0301 -0.225625 -0.002825 -0.091175 0 -0.172025 0.007525 -0.216225 0.006575 -0.038525 0.0235 -0.1034 0.0376 -0.144775 0.013175 -0.04135 0.0442 -0.107175 0.068625 -0.1457 0.0235 -0.03855 0.074275 -0.099675 0.112825 -0.1354 0.04325 -0.039475 0.09965 -0.0799 0.145725 -0.10245 0.04135 -0.01975 0.101525 -0.0442 0.135375 -0.0536 0.0329 -0.00845 0.114675 -0.0188 0.181425 -0.021625 0.089325 -0.00375 0.141025 0 0.1965 0.011275 0.0423 0.009425 0.105275 0.0301 0.14195 0.047025 0.035725 0.015975 0.06675 0.030075 0.067675 0.029125 0.001725 0 0.002675 -0.01895 0.0028 -0.0431l0.000025 -0.057475h0.322475Zm-9.98025 0 0 0.626875 -0.000125 0.06545c-0.0007 0.29425 -0.00475 0.583025 -0.014925 0.7827l-0.08085 0.02445c-0.044175 0.01315 -0.13725 0.03385 -0.206825 0.046075 -0.106225 0.01785 -0.154175 0.019725 -0.3074 0.015975 -0.141975 -0.003775 -0.1993 -0.0094 -0.2623 -0.025375 -0.045125 -0.012225 -0.1222 -0.041375 -0.172025 -0.065825 -0.05265 -0.026325 -0.11565 -0.067675 -0.151375 -0.0987 -0.0329 -0.0301 -0.0799 -0.083675 -0.102475 -0.11845 -0.0235 -0.035725 -0.054525 -0.09215 -0.067675 -0.12505 -0.013175 -0.0329 -0.0329 -0.0987 -0.0423 -0.144775 -0.013175 -0.067675 -0.016 -0.1175 -0.012225 -0.235975 0.0047 -0.11375 0.011275 -0.1692 0.02725 -0.225625 0.012225 -0.04135 0.040425 -0.10905 0.06205 -0.1504 0.021625 -0.041375 0.064875 -0.104375 0.096825 -0.13915 0.032925 -0.035725 0.0865 -0.082725 0.1194 -0.1053 0.0329 -0.021625 0.087425 -0.05075 0.121275 -0.063925 0.0329 -0.01315 0.093075 -0.031025 0.1335 -0.03855 0.040425 -0.0075 0.115625 -0.0141 0.1664 -0.0141 0.0517 0 0.125025 0.007525 0.164525 0.01505 0.03855 0.008475 0.09965 0.02915 0.1363 0.046075 0.035725 0.015975 0.06675 0.030075 0.0677 0.029125 0.00095 0 0.002825 -0.02255 0.002825 -0.049825v-0.05075h0.32245Zm1.8868 -0.711675 0.00005 0.477725c0.00035 0.29465 0.0031 0.313475 0.017825 0.30915 0.01035 -0.00375 0.059225 -0.016925 0.10905 -0.031025 0.059225 -0.015975 0.130675 -0.026325 0.206825 -0.031025 0.0865 -0.00375 0.13725 -0.000925 0.201175 0.011275 0.054525 0.01035 0.1194 0.032925 0.17675 0.061125 0.049825 0.024425 0.115625 0.0658 0.14665 0.093075 0.0301 0.026325 0.078025 0.081775 0.1053 0.12315 0.0282 0.04135 0.063 0.107175 0.078025 0.1476 0.015975 0.039475 0.035725 0.11375 0.045125 0.16545 0.011275 0.0677 0.0141 0.125975 0.01035 0.2181 -0.002825 0.068625 -0.013175 0.154175 -0.022575 0.1899 -0.00845 0.035725 -0.031025 0.09685 -0.048875 0.1354 -0.017875 0.038525 -0.0536 0.09775 -0.078975 0.130675 -0.02445 0.0329 -0.074275 0.081775 -0.11 0.10905 -0.034775 0.02725 -0.0987 0.06485 -0.140075 0.08365 -0.04135 0.01975 -0.109975 0.0442 -0.15135 0.055475 -0.064875 0.017875 -0.106225 0.020675 -0.292375 0.021625 -0.1758 0.00095 -0.23315 -0.002825 -0.302725 -0.01785 -0.047 -0.01035 -0.125025 -0.0301 -0.172025 -0.04325 -0.047025 -0.013175 -0.088375 -0.0282 -0.09215 -0.031975 -0.00375 -0.00375 -0.00845 -0.4945 -0.010325 -1.091475l-0.003775 -1.085825h0.3281Zm9.678475 0.7521 -0.00095 0.5039 0 0.039625 0 0.019 0.00005 0.071c0.000275 0.312875 0.00225 0.37305 0.014575 0.421175l0.00135 0.005125c0.001175 0.00425 0.002425 0.008475 0.003775 0.012825 0.012225 0.037625 0.034775 0.0818 0.053575 0.104375 0.017875 0.020675 0.055475 0.048875 0.083675 0.062025 0.027275 0.013175 0.079925 0.028225 0.11565 0.032925 0.038525 0.005625 0.09305 0.005625 0.1316 0 0.035725 -0.0047 0.088375 -0.01975 0.11565 -0.032925 0.0282 -0.01315 0.0658 -0.04135 0.08365 -0.062025 0.0188 -0.022575 0.042325 -0.06675 0.0536 -0.104375 0.0015 -0.004875 0.0029 -0.009575 0.004175 -0.0146l0.00095 -0.00385c0.0117 -0.04955 0.01405 -0.139075 0.0145 -0.6961l0.00005 -0.044975 0 -0.0232 0.00005 -0.123775 0 -0.026325 0 -0.139825h0.33l-0.0019 0.544325c-0.000825 0.454175 -0.00165 0.53205 -0.014725 0.583425l-0.0012 0.00455c-0.0006 0.00225 -0.00125 0.00445 -0.001925 0.00665l-0.001375 0.00445 -0.00145 0.004475c-0.011275 0.0329 -0.034775 0.082725 -0.05265 0.11 -0.01785 0.0282 -0.048875 0.066725 -0.0705 0.087425 -0.020675 0.020675 -0.0658 0.053575 -0.098725 0.073325 -0.0329 0.01975 -0.096825 0.047 -0.141 0.0611 -0.050775 0.016 -0.11845 0.0282 -0.18145 0.0329 -0.0564 0.002825 -0.14665 0.002825 -0.202125 -0.000925 -0.062975 -0.003775 -0.1316 -0.015975 -0.18145 -0.031975 -0.045125 -0.0141 -0.1081 -0.04135 -0.14195 -0.0611 -0.0329 -0.01975 -0.077075 -0.05265 -0.0987 -0.073325 -0.0207 -0.0207 -0.05265 -0.059225 -0.070525 -0.087425 -0.0169 -0.027275 -0.040425 -0.0771 -0.0517 -0.11l-0.000775 -0.002225 -0.001475 -0.0044c-0.00145 -0.004375 -0.002775 -0.008725 -0.004 -0.013325l-0.0012 -0.0047c-0.0126 -0.051825 -0.013625 -0.1407 -0.01605 -0.5789l-0.00375 -0.544325h0.334675Zm-2.2309 0.271675c-0.035725 0 -0.09025 0.007525 -0.120325 0.01505 -0.031025 0.008475 -0.078025 0.027275 -0.1053 0.0423 -0.02725 0.01505 -0.06675 0.046075 -0.088375 0.069575 -0.0216 0.0235 -0.049825 0.064875 -0.063925 0.093075 -0.0141 0.02725 -0.03195 0.078025 -0.040425 0.1128 -0.00845 0.03385 -0.015025 0.1006 -0.015025 0.1476 0 0.047025 0.006575 0.11375 0.015025 0.1476 0.008475 0.0348 0.02445 0.0818 0.036675 0.1053 0.012225 0.0235 0.04325 0.064875 0.068625 0.0912 0.025375 0.02725 0.06675 0.059225 0.0912 0.07145 0.025375 0.01315 0.0705 0.031 0.101525 0.039475 0.034775 0.01035 0.092125 0.015975 0.158875 0.015975 0.0564 0 0.136325 -0.0047 0.1758 -0.010325 0.040425 -0.00565 0.078975 -0.014125 0.084625 -0.017875 0.00845 -0.0047 0.01315 -0.125975 0.015975 -0.416475l0.002825 -0.410825c-0.10155 -0.0517 -0.15795 -0.073325 -0.1918 -0.081775 -0.0329 -0.008475 -0.0893 -0.01505 -0.125975 -0.014125Zm-10.1015 0.01505c-0.0301 0.008475 -0.0771 0.027275 -0.10435 0.0423 -0.027275 0.01505 -0.06675 0.046075 -0.088375 0.069575 -0.021625 0.0235 -0.050775 0.064875 -0.063925 0.093075 -0.0141 0.02725 -0.031975 0.078025 -0.040425 0.1128 -0.008475 0.03385 -0.01505 0.0959 -0.01505 0.137275 0 0.04135 0.0047 0.102475 0.01035 0.135375 0.006575 0.0329 0.0235 0.087425 0.039475 0.120325 0.0188 0.0395 0.0489 0.079925 0.087425 0.115625 0.037625 0.0348 0.0818 0.06395 0.12035 0.078975 0.047 0.0188 0.0846 0.02445 0.181425 0.02915 0.06865 0.002825 0.155125 -0.00095 0.2012 -0.007525 0.044175 -0.006575 0.08555 -0.01505 0.092125 -0.0188 0.007525 -0.0047 0.013175 -0.135375 0.017875 -0.415525l0.006575 -0.408c-0.082725 -0.045125 -0.1288 -0.065825 -0.157 -0.075225 -0.027275 -0.010325 -0.0912 -0.01975 -0.141025 -0.021625 -0.06205 -0.002825 -0.1081 0.00095 -0.14665 0.012225Zm2.9623 -0.01505c-0.03855 0.00095 -0.089325 0.00565 -0.11095 0.01035 -0.02255 0.0047 -0.07425 0.020675 -0.116575 0.035725l-0.0752 0.026325v0.833875c0.15795 0.041375 0.191775 0.0442 0.297075 0.041375 0.103425 -0.002825 0.13725 -0.007525 0.187075 -0.026325 0.032925 -0.013175 0.078975 -0.0376 0.1006 -0.055475 0.02255 -0.016925 0.054525 -0.048875 0.07145 -0.0705 0.016925 -0.021625 0.041375 -0.06675 0.053575 -0.09965 0.013175 -0.0329 0.028225 -0.0959 0.03385 -0.140075 0.008475 -0.060175 0.008475 -0.10155 -0.000925 -0.165475 -0.007525 -0.05735 -0.023525 -0.10905 -0.047025 -0.157925 -0.0188 -0.040425 -0.0517 -0.09025 -0.072375 -0.11095 -0.0207 -0.020675 -0.0583 -0.049825 -0.083675 -0.063925 -0.02445 -0.015025 -0.0724 -0.033825 -0.106225 -0.0423 -0.0329 -0.0094 -0.09215 -0.015975 -0.130675 -0.01505Zm4.323575 0.014125c-0.0301 0.00845 -0.078975 0.030075 -0.10905 0.047925 -0.0301 0.017875 -0.0724 0.05265 -0.09495 0.0771 -0.021625 0.025375 -0.050775 0.06675 -0.063925 0.093075 -0.013175 0.026325 -0.02445 0.0517 -0.02445 0.05735 0 0.00625 0.1151 0.009975 0.3283 0.0103l0.3937 0.000025c-0.01035 -0.07425 -0.01975 -0.110925 -0.02725 -0.130675 -0.008475 -0.0188 -0.032925 -0.054525 -0.054525 -0.078025 -0.026325 -0.02915 -0.0583 -0.049825 -0.094975 -0.063925 -0.031025 -0.01035 -0.087425 -0.021625 -0.125975 -0.02445 -0.045125 -0.001875 -0.091175 0.001875 -0.1269 0.0113Z" stroke-width="0.25"></path>
</svg>